<svg width="1378" height="61" viewBox="0 0 1378 61" fill="none" xmlns="http://www.w3.org/2000/svg">
<path d="M0.544 1.2H24.484C28.348 1.2 31.736 1.956 34.648 3.468C37.56 4.924 39.828 7.024 41.452 9.768C43.076 12.456 43.888 15.564 43.888 19.092C43.888 22.62 43.076 25.756 41.452 28.5C39.884 31.188 37.616 33.288 34.648 34.8C31.736 36.312 28.348 37.068 24.484 37.068H11.968V60H0.544V1.2ZM23.308 27.324C26.108 27.324 28.348 26.568 30.028 25.056C31.708 23.544 32.548 21.556 32.548 19.092C32.548 16.628 31.68 14.668 29.944 13.212C28.264 11.7 26.052 10.944 23.308 10.944H11.968V27.324H23.308ZM50.6553 1.2H73.5873C77.2273 1.2 80.4473 1.928 83.2473 3.384C86.1033 4.784 88.3153 6.8 89.8833 9.432C91.4513 12.064 92.2353 15.088 92.2353 18.504C92.2353 21.864 91.3393 24.944 89.5473 27.744C87.8113 30.488 85.4033 32.588 82.3233 34.044L98.1993 60H85.0113L70.9833 35.892H62.0793V60H50.6553V1.2ZM71.6553 26.148C74.4553 26.148 76.6673 25.448 78.2913 24.048C79.9713 22.648 80.8113 20.8 80.8113 18.504C80.8113 16.208 79.9713 14.388 78.2913 13.044C76.6673 11.644 74.4553 10.944 71.6553 10.944H62.0793V26.148H71.6553ZM128.561 60.672C122.905 60.672 117.781 59.384 113.189 56.808C108.653 54.176 105.097 50.592 102.521 46.056C99.9447 41.464 98.6567 36.312 98.6567 30.6C98.6567 24.888 99.9447 19.764 102.521 15.228C105.097 10.636 108.653 7.052 113.189 4.476C117.781 1.844 122.905 0.528 128.561 0.528C134.161 0.528 139.229 1.844 143.765 4.476C148.301 7.052 151.857 10.636 154.433 15.228C157.065 19.764 158.381 24.888 158.381 30.6C158.381 36.312 157.065 41.464 154.433 46.056C151.857 50.592 148.301 54.176 143.765 56.808C139.229 59.384 134.161 60.672 128.561 60.672ZM110.081 30.6C110.081 34.464 110.865 37.964 112.433 41.1C114.057 44.18 116.269 46.588 119.069 48.324C121.869 50.06 125.033 50.928 128.561 50.928C132.089 50.928 135.253 50.06 138.053 48.324C140.853 46.532 143.037 44.096 144.605 41.016C146.173 37.936 146.957 34.464 146.957 30.6C146.957 26.736 146.173 23.264 144.605 20.184C143.037 17.104 140.853 14.696 138.053 12.96C135.253 11.168 132.089 10.272 128.561 10.272C125.033 10.272 121.869 11.14 119.069 12.876C116.269 14.612 114.057 17.048 112.433 20.184C110.865 23.264 110.081 26.736 110.081 30.6ZM159.473 1.2H171.653L183.413 33.876C184.925 37.964 186.297 42.052 187.529 46.14H187.865C189.097 42.052 190.441 37.964 191.897 33.876L203.657 1.2H215.585L193.913 60H181.061L159.473 1.2ZM221.823 1.2H233.331V60H221.823V1.2ZM243.881 1.2H263.621C269.165 1.2 274.205 2.32 278.741 4.56C283.277 6.8 286.889 10.132 289.577 14.556C292.265 18.98 293.609 24.328 293.609 30.6C293.609 36.872 292.265 42.22 289.577 46.644C286.889 51.068 283.249 54.4 278.657 56.64C274.121 58.88 269.109 60 263.621 60H243.881V1.2ZM262.277 50.256C265.973 50.256 269.333 49.556 272.357 48.156C275.381 46.7 277.761 44.488 279.497 41.52C281.289 38.552 282.185 34.912 282.185 30.6C282.185 26.288 281.289 22.648 279.497 19.68C277.761 16.712 275.381 14.528 272.357 13.128C269.333 11.672 265.973 10.944 262.277 10.944H255.305V50.256H262.277ZM301.62 1.2H313.128V60H301.62V1.2ZM323.678 1.2H337.79L355.178 32.28C357.362 36.088 359.546 40.4 361.73 45.216L362.066 45.132C361.618 39.868 361.394 35.052 361.394 30.684V1.2H372.818V60H358.706L341.234 28.92C339.106 25.112 336.95 20.8 334.766 15.984L334.43 16.068C334.878 21.332 335.102 26.148 335.102 30.516V60H323.678V1.2ZM409.761 60.672C404.441 60.672 399.569 59.496 395.145 57.144C390.777 54.792 387.305 51.348 384.729 46.812C382.209 42.276 380.949 36.872 380.949 30.6C380.949 24.328 382.265 18.924 384.897 14.388C387.529 9.852 391.113 6.408 395.649 4.056C400.185 1.704 405.225 0.528 410.769 0.528C415.305 0.528 419.393 1.368 423.033 3.048C426.729 4.728 429.697 7.08 431.937 10.104C434.233 13.128 435.577 16.656 435.969 20.688H424.209C423.705 17.552 422.165 15.032 419.589 13.128C417.013 11.224 413.821 10.272 410.013 10.272C406.597 10.272 403.545 11.112 400.857 12.792C398.169 14.416 396.069 16.768 394.557 19.848C393.101 22.928 392.373 26.512 392.373 30.6C392.373 34.688 393.129 38.272 394.641 41.352C396.153 44.432 398.253 46.812 400.941 48.492C403.685 50.116 406.849 50.928 410.433 50.928C414.801 50.928 418.385 49.696 421.185 47.232C423.985 44.768 425.525 41.576 425.805 37.656H408.249V28.668H436.305V60H425.889V51.6C424.601 54.568 422.529 56.836 419.673 58.404C416.817 59.916 413.513 60.672 409.761 60.672ZM486.467 60.672C482.379 60.672 478.599 59.86 475.127 58.236C471.711 56.556 468.883 54.204 466.643 51.18C464.459 48.1 463.199 44.516 462.863 40.428H474.203C474.651 43.452 475.967 45.972 478.151 47.988C480.391 49.948 483.163 50.928 486.467 50.928C489.491 50.928 491.927 50.284 493.775 48.996C495.623 47.652 496.547 45.832 496.547 43.536C496.547 41.856 495.987 40.484 494.867 39.42C493.803 38.3 492.431 37.432 490.751 36.816C489.127 36.144 486.887 35.416 484.031 34.632C480.055 33.456 476.807 32.308 474.287 31.188C471.767 30.068 469.611 28.388 467.819 26.148C466.027 23.852 465.131 20.828 465.131 17.076C465.131 13.828 466.027 10.972 467.819 8.508C469.667 5.988 472.159 4.028 475.295 2.628C478.431 1.228 481.931 0.528 485.795 0.528C491.395 0.528 496.211 2.068 500.243 5.148C504.275 8.172 506.683 12.428 507.467 17.916H496.211C495.707 15.788 494.503 13.996 492.599 12.54C490.751 11.028 488.483 10.272 485.795 10.272C482.883 10.272 480.615 10.832 478.991 11.952C477.423 13.016 476.639 14.556 476.639 16.572C476.639 18.532 477.563 20.016 479.411 21.024C481.259 21.976 484.115 22.956 487.979 23.964C492.123 25.028 495.511 26.148 498.143 27.324C500.831 28.444 503.127 30.264 505.031 32.784C506.991 35.248 507.971 38.608 507.971 42.864C507.971 46.448 507.047 49.584 505.199 52.272C503.407 54.96 500.887 57.032 497.639 58.488C494.391 59.944 490.667 60.672 486.467 60.672ZM543.058 60.672C537.402 60.672 532.278 59.384 527.686 56.808C523.15 54.176 519.594 50.592 517.018 46.056C514.442 41.464 513.154 36.312 513.154 30.6C513.154 24.888 514.442 19.764 517.018 15.228C519.594 10.636 523.15 7.052 527.686 4.476C532.278 1.844 537.402 0.528 543.058 0.528C548.658 0.528 553.726 1.844 558.262 4.476C562.798 7.052 566.354 10.636 568.93 15.228C571.562 19.764 572.878 24.888 572.878 30.6C572.878 36.312 571.562 41.464 568.93 46.056C566.354 50.592 562.798 54.176 558.262 56.808C553.726 59.384 548.658 60.672 543.058 60.672ZM524.578 30.6C524.578 34.464 525.362 37.964 526.93 41.1C528.554 44.18 530.766 46.588 533.566 48.324C536.366 50.06 539.53 50.928 543.058 50.928C546.586 50.928 549.75 50.06 552.55 48.324C555.35 46.532 557.534 44.096 559.102 41.016C560.67 37.936 561.454 34.464 561.454 30.6C561.454 26.736 560.67 23.264 559.102 20.184C557.534 17.104 555.35 14.696 552.55 12.96C549.75 11.168 546.586 10.272 543.058 10.272C539.53 10.272 536.366 11.14 533.566 12.876C530.766 14.612 528.554 17.048 526.93 20.184C525.362 23.264 524.578 26.736 524.578 30.6ZM580.959 1.2H592.467V50.256H619.431V60H580.959V1.2ZM650.174 60.672C645.414 60.672 641.214 59.748 637.574 57.9C633.934 56.052 631.106 53.448 629.09 50.088C627.074 46.672 626.066 42.78 626.066 38.412V1.2H637.574V38.412C637.574 42.108 638.722 45.132 641.018 47.484C643.37 49.78 646.422 50.928 650.174 50.928C653.87 50.928 656.866 49.78 659.162 47.484C661.514 45.132 662.69 42.108 662.69 38.412V1.2H674.114V38.412C674.114 42.78 673.106 46.672 671.09 50.088C669.13 53.448 666.33 56.052 662.69 57.9C659.106 59.748 654.934 60.672 650.174 60.672ZM680.593 1.2H727.381V10.944H709.657V60H698.233V10.944H680.593V1.2ZM733.754 1.2H745.262V60H733.754V1.2ZM783.196 60.672C777.54 60.672 772.416 59.384 767.824 56.808C763.288 54.176 759.732 50.592 757.156 46.056C754.58 41.464 753.292 36.312 753.292 30.6C753.292 24.888 754.58 19.764 757.156 15.228C759.732 10.636 763.288 7.052 767.824 4.476C772.416 1.844 777.54 0.528 783.196 0.528C788.796 0.528 793.864 1.844 798.4 4.476C802.936 7.052 806.492 10.636 809.068 15.228C811.7 19.764 813.016 24.888 813.016 30.6C813.016 36.312 811.7 41.464 809.068 46.056C806.492 50.592 802.936 54.176 798.4 56.808C793.864 59.384 788.796 60.672 783.196 60.672ZM764.716 30.6C764.716 34.464 765.5 37.964 767.068 41.1C768.692 44.18 770.904 46.588 773.704 48.324C776.504 50.06 779.668 50.928 783.196 50.928C786.724 50.928 789.888 50.06 792.688 48.324C795.488 46.532 797.672 44.096 799.24 41.016C800.808 37.936 801.592 34.464 801.592 30.6C801.592 26.736 800.808 23.264 799.24 20.184C797.672 17.104 795.488 14.696 792.688 12.96C789.888 11.168 786.724 10.272 783.196 10.272C779.668 10.272 776.504 11.14 773.704 12.876C770.904 14.612 768.692 17.048 767.068 20.184C765.5 23.264 764.716 26.736 764.716 30.6ZM821.181 1.2H835.293L852.681 32.28C854.865 36.088 857.049 40.4 859.233 45.216L859.569 45.132C859.121 39.868 858.897 35.052 858.897 30.684V1.2H870.321V60H856.209L838.737 28.92C836.609 25.112 834.453 20.8 832.269 15.984L831.933 16.068C832.381 21.332 832.605 26.148 832.605 30.516V60H821.181V1.2ZM901.384 60.672C897.296 60.672 893.516 59.86 890.044 58.236C886.628 56.556 883.8 54.204 881.56 51.18C879.376 48.1 878.116 44.516 877.78 40.428H889.12C889.568 43.452 890.884 45.972 893.068 47.988C895.308 49.948 898.08 50.928 901.384 50.928C904.408 50.928 906.844 50.284 908.692 48.996C910.54 47.652 911.464 45.832 911.464 43.536C911.464 41.856 910.904 40.484 909.784 39.42C908.72 38.3 907.348 37.432 905.668 36.816C904.044 36.144 901.804 35.416 898.948 34.632C894.972 33.456 891.724 32.308 889.204 31.188C886.684 30.068 884.528 28.388 882.736 26.148C880.944 23.852 880.048 20.828 880.048 17.076C880.048 13.828 880.944 10.972 882.736 8.508C884.584 5.988 887.076 4.028 890.212 2.628C893.348 1.228 896.848 0.528 900.712 0.528C906.312 0.528 911.128 2.068 915.16 5.148C919.192 8.172 921.6 12.428 922.384 17.916H911.128C910.624 15.788 909.42 13.996 907.516 12.54C905.668 11.028 903.4 10.272 900.712 10.272C897.8 10.272 895.532 10.832 893.908 11.952C892.34 13.016 891.556 14.556 891.556 16.572C891.556 18.532 892.48 20.016 894.328 21.024C896.176 21.976 899.032 22.956 902.896 23.964C907.04 25.028 910.428 26.148 913.06 27.324C915.748 28.444 918.044 30.264 919.948 32.784C921.908 35.248 922.888 38.608 922.888 42.864C922.888 46.448 921.964 49.584 920.116 52.272C918.324 54.96 915.804 57.032 912.556 58.488C909.308 59.944 905.584 60.672 901.384 60.672ZM970.681 60.672C966.593 60.672 962.813 59.86 959.341 58.236C955.925 56.556 953.097 54.204 950.857 51.18C948.673 48.1 947.413 44.516 947.077 40.428H958.417C958.865 43.452 960.181 45.972 962.365 47.988C964.605 49.948 967.377 50.928 970.681 50.928C973.705 50.928 976.141 50.284 977.989 48.996C979.837 47.652 980.761 45.832 980.761 43.536C980.761 41.856 980.201 40.484 979.081 39.42C978.017 38.3 976.645 37.432 974.965 36.816C973.341 36.144 971.101 35.416 968.245 34.632C964.269 33.456 961.021 32.308 958.501 31.188C955.981 30.068 953.825 28.388 952.033 26.148C950.241 23.852 949.345 20.828 949.345 17.076C949.345 13.828 950.241 10.972 952.033 8.508C953.881 5.988 956.373 4.028 959.509 2.628C962.645 1.228 966.145 0.528 970.009 0.528C975.609 0.528 980.425 2.068 984.457 5.148C988.489 8.172 990.897 12.428 991.681 17.916H980.425C979.921 15.788 978.717 13.996 976.813 12.54C974.965 11.028 972.697 10.272 970.009 10.272C967.097 10.272 964.829 10.832 963.205 11.952C961.637 13.016 960.853 14.556 960.853 16.572C960.853 18.532 961.777 20.016 963.625 21.024C965.473 21.976 968.329 22.956 972.193 23.964C976.337 25.028 979.725 26.148 982.357 27.324C985.045 28.444 987.341 30.264 989.245 32.784C991.205 35.248 992.185 38.608 992.185 42.864C992.185 46.448 991.261 49.584 989.413 52.272C987.621 54.96 985.101 57.032 981.853 58.488C978.605 59.944 974.881 60.672 970.681 60.672ZM999.804 1.2H1011.31V60H999.804V1.2ZM1021.86 1.2H1035.97L1053.36 32.28C1055.55 36.088 1057.73 40.4 1059.91 45.216L1060.25 45.132C1059.8 39.868 1059.58 35.052 1059.58 30.684V1.2H1071V60H1056.89L1039.42 28.92C1037.29 25.112 1035.13 20.8 1032.95 15.984L1032.61 16.068C1033.06 21.332 1033.29 26.148 1033.29 30.516V60H1021.86V1.2ZM1108.37 60.672C1102.77 60.672 1097.75 59.468 1093.33 57.06C1088.91 54.652 1085.43 51.18 1082.91 46.644C1080.39 42.108 1079.13 36.76 1079.13 30.6C1079.13 24.384 1080.39 19.008 1082.91 14.472C1085.49 9.936 1088.99 6.492 1093.41 4.14C1097.89 1.732 1102.88 0.528 1108.37 0.528C1113.18 0.528 1117.47 1.34 1121.22 2.964C1124.97 4.588 1127.97 6.94 1130.21 10.02C1132.45 13.044 1133.76 16.6 1134.15 20.688H1122.31C1121.81 17.552 1120.27 15.032 1117.69 13.128C1115.17 11.224 1112.03 10.272 1108.28 10.272C1104.92 10.272 1101.9 11.084 1099.21 12.708C1096.52 14.276 1094.39 16.6 1092.83 19.68C1091.31 22.76 1090.56 26.4 1090.56 30.6C1090.56 34.8 1091.31 38.44 1092.83 41.52C1094.39 44.6 1096.52 46.952 1099.21 48.576C1101.9 50.144 1104.92 50.928 1108.28 50.928C1112.09 50.928 1115.31 49.92 1117.94 47.904C1120.57 45.832 1122.09 43.284 1122.48 40.26H1134.41C1133.57 46.812 1130.79 51.852 1126.09 55.38C1121.39 58.908 1115.48 60.672 1108.37 60.672ZM1142.51 1.2H1182.41V10.944H1154.02V24.804H1177.03V34.548H1154.02V50.256H1182.74V60H1142.51V1.2ZM1223.06 13.8C1219.98 16.656 1215.36 18.784 1209.2 20.184V10.356C1211.5 9.74 1214.13 8.592 1217.1 6.912C1220.06 5.232 1222.67 3.328 1224.91 1.2H1234.57V60H1223.06V13.8ZM1264.76 0.528C1269.63 0.528 1273.83 1.676 1277.36 3.972C1280.94 6.268 1283.68 9.46 1285.59 13.548C1287.49 17.636 1288.44 22.312 1288.44 27.576C1288.44 34.184 1287.44 39.98 1285.42 44.964C1283.4 49.948 1280.52 53.812 1276.77 56.556C1273.02 59.3 1268.62 60.672 1263.58 60.672C1257.53 60.672 1252.69 59.216 1249.05 56.304C1245.46 53.336 1243.39 49.36 1242.83 44.376H1253.75C1254.09 46.336 1255.12 47.988 1256.86 49.332C1258.65 50.62 1260.86 51.264 1263.5 51.264C1268.03 51.264 1271.5 49.416 1273.91 45.72C1276.32 41.968 1277.66 37.292 1277.94 31.692C1276.6 34.436 1274.64 36.508 1272.06 37.908C1269.54 39.308 1266.63 40.008 1263.33 40.008C1259.46 40.008 1255.99 39.168 1252.91 37.488C1249.83 35.752 1247.4 33.4 1245.6 30.432C1243.87 27.464 1243 24.104 1243 20.352C1243 16.544 1243.92 13.156 1245.77 10.188C1247.68 7.164 1250.28 4.812 1253.58 3.132C1256.89 1.396 1260.61 0.528 1264.76 0.528ZM1254 20.856C1254 23.936 1255.04 26.484 1257.11 28.5C1259.18 30.516 1261.79 31.524 1264.92 31.524C1268.12 31.524 1270.75 30.516 1272.82 28.5C1274.89 26.428 1275.93 23.824 1275.93 20.688C1275.93 17.552 1274.89 14.948 1272.82 12.876C1270.75 10.804 1268.12 9.768 1264.92 9.768C1261.73 9.768 1259.1 10.832 1257.03 12.96C1255.01 15.032 1254 17.664 1254 20.856ZM1299.21 60C1299.77 51.432 1301.99 42.752 1305.85 33.96C1309.71 25.168 1314.67 17.496 1320.72 10.944H1290.14V1.2H1332.56V10.944C1326.01 18.616 1320.77 26.848 1316.85 35.64C1312.93 44.376 1310.83 52.496 1310.55 60H1299.21ZM1356.1 60.672C1352.18 60.672 1348.6 59.916 1345.35 58.404C1342.16 56.836 1339.58 54.68 1337.62 51.936C1335.66 49.136 1334.6 45.944 1334.43 42.36H1344.76C1345.21 44.992 1346.41 47.092 1348.37 48.66C1350.39 50.172 1352.83 50.928 1355.68 50.928C1358.76 50.928 1361.28 49.948 1363.24 47.988C1365.2 45.972 1366.18 43.424 1366.18 40.344C1366.18 37.152 1365.17 34.576 1363.16 32.616C1361.14 30.6 1358.54 29.592 1355.35 29.592C1353.16 29.592 1351.2 30.068 1349.47 31.02C1347.73 31.916 1346.36 33.176 1345.35 34.8H1335.86L1340.65 1.2H1373.07V10.944H1349.05L1346.61 25.728C1348.18 24.16 1349.97 22.984 1351.99 22.2C1354.06 21.36 1356.21 20.94 1358.45 20.94C1362.09 20.94 1365.37 21.752 1368.28 23.376C1371.19 25 1373.46 27.296 1375.09 30.264C1376.71 33.176 1377.52 36.536 1377.52 40.344C1377.52 44.376 1376.63 47.932 1374.83 51.012C1373.04 54.092 1370.52 56.472 1367.27 58.152C1364.03 59.832 1360.3 60.672 1356.1 60.672Z" fill="black"/>
</svg>
