<svg width="74" height="22" viewBox="0 0 74 22" fill="none" xmlns="http://www.w3.org/2000/svg">
<path fill-rule="evenodd" clip-rule="evenodd" d="M45.6341 21.5319V19.3612V10.4655C45.6341 9.95477 45.5292 9.5717 45.3194 9.35889C45.1096 9.12479 44.7739 9.01839 44.3123 9.01839C43.6409 9.01839 42.9486 9.20992 42.2562 9.59299C41.6058 9.91221 40.9763 10.3804 40.3679 10.955V21.5532H37.0948V10.4655C37.0948 10.1463 37.0738 9.89093 37.0109 9.72067C36.9479 9.55042 36.885 9.42273 36.7801 9.31633C36.6961 9.2312 36.5703 9.16736 36.4234 9.10351C36.2765 9.03967 36.0457 8.99711 35.752 8.99711C35.4792 8.99711 35.1645 9.03967 34.8288 9.14607C34.4931 9.2312 34.1155 9.40145 33.6958 9.59299C33.3392 9.76324 33.0035 9.95477 32.6887 10.1676C32.374 10.3804 32.1013 10.5932 31.8285 10.8273V18.4248H32.7097V21.5319H28.5554V19.3399V9.31633H27.6323V6.20924H31.8075V7.10306C32.416 6.71999 33.0454 6.42205 33.7168 6.18796C34.3882 5.95386 35.1016 5.84745 35.8359 5.84745C36.6122 5.84745 37.3046 5.99642 37.955 6.27308C38.6054 6.54974 39.151 7.03921 39.5706 7.69894C40.0322 7.33715 40.5567 6.99665 41.1442 6.69871C41.6897 6.42205 42.2352 6.23052 42.7597 6.06027C43.3052 5.9113 43.8088 5.82617 44.3333 5.82617C44.9837 5.82617 45.5922 5.93258 46.1377 6.10283C46.6832 6.29436 47.1658 6.5923 47.6064 7.01793C48.4456 7.84791 48.8653 8.93326 48.8653 10.274V18.4248H49.6206V21.5319H45.6341ZM8.95898 20.5334V21.5549V21.5762H12.9664V18.4691H12.253V10.6163C12.253 9.85014 12.1271 9.16914 11.8544 8.55198C11.6026 7.93482 11.183 7.42406 10.6165 6.97715C10.071 6.59409 9.46253 6.31743 8.74917 6.12589C8.05679 5.93436 7.2595 5.84924 6.39927 5.84924C6.00063 5.84924 5.53904 5.91308 5.01451 6.04077C4.48998 6.16846 3.98643 6.31743 3.52485 6.48768C3.13267 6.60874 2.68507 6.78603 2.18204 6.98527L2.18204 6.98527L2.18203 6.98527C2.06609 7.03119 1.9472 7.07828 1.82537 7.12612L2.83247 9.67989C2.97965 9.62018 3.14748 9.56046 3.33597 9.4934L3.336 9.49339L3.33602 9.49338C3.41621 9.46485 3.50013 9.43499 3.58779 9.40323C3.88153 9.29683 4.17526 9.19042 4.51096 9.08401C4.82568 8.97761 5.16138 8.89248 5.4761 8.82863C5.79082 8.76479 6.06357 8.72223 6.31535 8.72223C6.79792 8.72223 7.21754 8.76479 7.55324 8.84992C7.88894 8.93504 8.1617 9.06273 8.39249 9.2117C8.58132 9.33939 8.70721 9.48836 8.81211 9.70117C8.91702 9.91399 8.95898 10.2119 8.95898 10.595V12.3614C8.79113 12.2762 8.62328 12.2124 8.45543 12.1698L8.45541 12.1698C8.28757 12.1273 8.11973 12.0847 7.97286 12.0421C7.2595 11.8506 6.54614 11.7655 5.89572 11.7655C5.03549 11.7655 4.28017 11.8719 3.56681 12.0847C2.87443 12.2975 2.24499 12.6593 1.69948 13.1488C0.566493 14.1064 0 15.3408 0 16.8305C0 18.2137 0.482568 19.3629 1.4477 20.2993C2.41284 21.2783 3.60877 21.7677 5.05647 21.7677C5.74885 21.7677 6.42025 21.6613 7.09165 21.4272C7.74207 21.1931 8.37151 20.8952 8.95898 20.5334ZM7.80502 14.979C8.18268 15.1067 8.56034 15.2769 8.95898 15.4897V17.0858C8.51838 17.554 7.99385 17.9371 7.38539 18.235C6.67203 18.5968 6.00063 18.7883 5.39217 18.7883C5.01451 18.7883 4.72077 18.7245 4.469 18.6394C4.21723 18.533 4.00741 18.4053 3.83956 18.235C3.48288 17.8732 3.29405 17.4263 3.29405 16.9581C3.29405 16.3197 3.54583 15.8089 4.00741 15.3833C4.21723 15.1918 4.48998 15.0215 4.84666 14.8938C5.18236 14.7662 5.62297 14.7023 6.1475 14.7023C6.73497 14.7023 7.30147 14.7874 7.80502 14.979ZM24.6532 20.7236C25.2616 20.2979 25.7862 19.7872 26.2477 19.1488C26.7093 18.5316 27.1499 17.6378 27.6115 16.4673L24.8 15.233C24.4434 16.0842 24.1286 16.7014 23.8559 17.0845C23.5831 17.4675 23.2894 17.7867 22.9957 18.0421C22.6809 18.2762 22.3452 18.4465 21.9886 18.5742C21.6319 18.7018 21.1913 18.7657 20.7087 18.7657C19.4288 18.7657 18.4217 18.3401 17.6664 17.4888C17.2888 17.0419 16.995 16.5311 16.7852 15.9565C16.5754 15.3819 16.4705 14.7009 16.4705 13.8922C16.4705 12.4025 16.8482 11.1895 17.6245 10.2957C18.3588 9.44442 19.3239 9.01879 20.4989 9.01879C21.3801 9.01879 22.1564 9.29545 22.8278 9.84877C23.1215 10.0616 23.3523 10.4021 23.5412 10.8703C23.73 11.3172 23.8349 12.1046 23.8769 13.19H26.8562V7.08218H24.2545C23.709 6.65655 23.1006 6.33733 22.4711 6.1458C21.8417 5.97555 21.1703 5.86914 20.4779 5.86914C18.3798 5.86914 16.6174 6.65655 15.2116 8.23138C13.8478 9.74236 13.1555 11.6364 13.1555 13.9135C13.1555 16.2332 13.8478 18.1485 15.2326 19.6808C16.6174 21.1918 18.4217 21.9579 20.6458 21.9579C22.1564 21.9579 23.4782 21.5323 24.6532 20.7236ZM53.0918 15.1687C53.2848 16.0456 53.7011 16.8398 54.3205 17.5309C55.2227 18.4673 56.3557 18.9355 57.7404 18.9355C57.9922 18.9355 58.2859 18.8929 58.6426 18.8078C58.9993 18.7227 59.356 18.6163 59.7336 18.4886C59.912 18.4248 60.0903 18.3556 60.2687 18.2864C60.447 18.2173 60.6254 18.1481 60.8037 18.0843C61.0107 18.0102 61.1894 17.9361 61.3481 17.8703C61.4628 17.8227 61.5671 17.7795 61.6639 17.7438L62.5032 20.638C62.4088 20.6726 62.3163 20.7065 62.2258 20.7397C61.5922 20.9722 61.0529 21.1701 60.5939 21.319C60.0693 21.4893 59.5238 21.6383 58.9573 21.7872C58.3909 21.9362 57.9083 22 57.5096 22C55.2646 22 53.4183 21.2339 51.9286 19.6804C50.4599 18.1268 49.7256 16.2115 49.7256 13.9344C49.7256 11.6147 50.439 9.67809 51.8867 8.16711C53.3554 6.63484 55.2017 5.88999 57.4047 5.88999C59.6078 5.88999 61.3912 6.63484 62.7549 8.14582C63.4473 8.93324 63.9718 9.86962 64.3495 10.955C64.7062 12.0616 64.937 13.4662 65.0419 15.1687H53.0918ZM57.3208 8.93324C58.5587 8.93324 59.5238 9.29502 60.2582 10.0399C60.8037 10.5932 61.1813 11.2529 61.4331 12.0403H53.2505C53.4603 11.3806 53.775 10.806 54.2156 10.3165C55.0339 9.40143 56.0619 8.93324 57.3208 8.93324Z" fill="#005587"/>
<path d="M73.9999 5.5602V4.74575L72.8726 4.33853C72.8417 4.16624 72.7954 4.00961 72.7337 3.85299L73.5212 2.9289L73.1197 2.22408L71.9307 2.45902C71.8226 2.33372 71.6991 2.20842 71.5755 2.09878L71.8072 0.892765L71.1123 0.485539L70.1858 1.28433C70.0314 1.23734 69.8615 1.19035 69.7071 1.15903L69.3056 0H68.5027L68.1012 1.15903C67.9313 1.19035 67.7769 1.23734 67.6225 1.28433L66.696 0.485539L66.0011 0.892765L66.2327 2.09878C66.1092 2.20842 65.9857 2.33372 65.8776 2.45902L64.6886 2.22408L64.2871 2.9289L65.0746 3.85299C65.0283 4.00961 64.982 4.1819 64.9356 4.33853L63.793 4.74575V5.5602L64.9202 5.96743C64.9511 6.13972 64.9974 6.31201 65.0437 6.46863L64.2562 7.39272L64.6886 8.09754L65.8621 7.87826C65.9702 8.01922 66.0938 8.12886 66.2327 8.25416L66.0166 9.44451L66.7114 9.85174L67.607 9.06861C67.7769 9.13126 67.9468 9.16259 68.1166 9.20958L68.5027 10.3529H69.3056L69.6917 9.20958C69.8615 9.17825 70.0314 9.13126 70.2012 9.06861L71.0968 9.85174L71.7917 9.44451L71.5755 8.25416C71.7145 8.14452 71.8226 8.01922 71.9461 7.87826L73.1197 8.09754L73.5212 7.39272L72.7337 6.46863C72.7954 6.31201 72.8263 6.13972 72.8726 5.96743L73.9999 5.5602ZM68.9041 7.22043C67.7923 7.22043 66.8813 6.29634 66.8813 5.15298C66.8813 4.00961 67.7923 3.08552 68.9041 3.08552C70.0314 3.08552 70.927 4.00961 70.927 5.15298C70.927 6.29634 70.0314 7.22043 68.9041 7.22043Z" fill="#5F676F"/>
</svg>
