<svg width="41" height="41" viewBox="0 0 41 41" fill="none" xmlns="http://www.w3.org/2000/svg">
<g clip-path="url(#clip0_4341_66719)">
<path fill-rule="evenodd" clip-rule="evenodd" d="M20.415 0.155029C9.36935 0.155029 0.415039 9.10934 0.415039 20.155C0.415039 31.2023 9.36935 40.155 20.415 40.155C31.4607 40.155 40.415 31.2023 40.415 20.155C40.415 9.10934 31.4599 0.155029 20.415 0.155029ZM23.6459 10.0328H25.042V15.2787C25.042 15.4419 25.0737 15.5581 25.1322 15.6295C25.189 15.7026 25.2849 15.7408 25.4165 15.7408C25.518 15.7408 25.6479 15.6913 25.8063 15.5962C25.9614 15.498 26.106 15.3761 26.236 15.2251V10.0328H27.6353V16.8746H26.236V16.1193C25.9809 16.3971 25.7121 16.6107 25.4319 16.7552C25.1541 16.8998 24.8845 16.9745 24.6213 16.9745C24.2981 16.9745 24.0552 16.8714 23.8904 16.6667C23.7287 16.4653 23.6459 16.1607 23.6459 15.7498V10.0328ZM18.4561 11.5971C18.4561 11.0691 18.6429 10.6468 19.0189 10.3292C19.3966 10.0182 19.9026 9.8598 20.5369 9.8598C21.116 9.8598 21.5886 10.0263 21.9598 10.356C22.3277 10.6858 22.5121 11.1146 22.5121 11.6377V15.1707C22.5121 15.7579 22.331 16.2159 21.9712 16.5473C21.6065 16.8787 21.1086 17.0452 20.4735 17.0452C19.8628 17.0452 19.373 16.8738 19.0059 16.5327C18.6396 16.1867 18.4552 15.7238 18.4552 15.143V11.5971H18.4561ZM14.6485 7.60112L15.6703 11.3063H15.7702L16.7423 7.60112H18.3415L16.5109 13.0281V16.8754H14.9369V13.1995L13.0632 7.60112H14.6485ZM32.9543 27.1203C32.9543 29.595 30.9474 31.6036 28.4727 31.6036H12.8983C10.4219 31.6036 8.41504 29.595 8.41504 27.1203V23.5158C8.41504 21.0395 10.4219 19.0326 12.8983 19.0326H28.4727C30.9474 19.0326 32.9543 21.0395 32.9543 23.5158V27.1203ZM20.9213 15.7075C20.8101 15.8106 20.659 15.861 20.4689 15.861C20.2854 15.861 20.1425 15.8106 20.0442 15.7075C19.9443 15.6059 19.8947 15.4614 19.8947 15.2746V11.5467C19.8947 11.398 19.9467 11.2754 20.0531 11.1852C20.1611 11.0918 20.2992 11.0455 20.4689 11.0455C20.6549 11.0455 20.8036 11.0918 20.9181 11.1852C21.0326 11.2754 21.0895 11.3972 21.0895 11.5467V15.2746C21.0895 15.4565 21.0326 15.6011 20.9213 15.7075ZM13.3241 21.8386H11.876V20.6139H16.17V21.8386H14.7235V29.0321H13.3241V21.8386ZM23.5541 22.7458C23.3608 22.7458 23.1699 22.7954 22.9815 22.8937C22.7955 22.9919 22.6168 23.1381 22.4503 23.3266V20.6139H21.1955V29.0321H22.4503V28.5562C22.6119 28.7479 22.7898 28.8876 22.9799 28.9785C23.1683 29.0687 23.386 29.1134 23.6304 29.1134C23.9967 29.1134 24.281 28.9972 24.4727 28.7625C24.6676 28.5261 24.7659 28.1899 24.7659 27.7505V24.3036C24.7659 23.7944 24.6627 23.407 24.4532 23.1438C24.2469 22.879 23.9472 22.7458 23.5541 22.7458ZM23.4858 27.5791C23.4858 27.7789 23.4493 27.9203 23.3778 28.0072C23.3064 28.0957 23.1951 28.1387 23.0432 28.1387C22.9384 28.1387 22.8402 28.1152 22.7435 28.0721C22.6485 28.0291 22.5486 27.9536 22.4503 27.8528V23.9836C22.5348 23.8967 22.6201 23.8325 22.7053 23.7936C22.7906 23.7505 22.88 23.7318 22.9685 23.7318C23.135 23.7318 23.2649 23.7854 23.3559 23.8918C23.4428 24.0015 23.4858 24.1599 23.4858 24.371V27.5791ZM18.635 27.8724C18.7747 27.7838 18.903 27.6742 19.0192 27.541H19.02V22.8222H20.2618V29.0322H19.02V28.3515C18.7901 28.6025 18.5521 28.7926 18.3044 28.9274C18.0567 29.0606 17.8155 29.1239 17.5824 29.1239C17.2949 29.1239 17.0813 29.0322 16.9335 28.8478C16.7889 28.6594 16.7158 28.3865 16.7158 28.0153V22.8214H17.956V27.5865C17.956 27.7327 17.9836 27.8391 18.034 27.904C18.0876 27.9706 18.1712 28.0023 18.289 28.0023C18.3783 28.0023 18.4953 27.9593 18.635 27.8724ZM25.943 23.1772C26.2954 22.836 26.7454 22.6679 27.3026 22.6679C27.8703 22.6679 28.308 22.8247 28.6142 23.1382C28.9196 23.4541 29.0707 23.9041 29.0707 24.4913V26.0775H26.6975V27.2462C26.6975 27.5743 26.7365 27.8001 26.8177 27.9284C26.9005 28.0535 27.0402 28.1152 27.2384 28.1152C27.4447 28.1152 27.5893 28.0616 27.6697 27.9552C27.7501 27.8488 27.7931 27.6125 27.7931 27.2462V26.9636H29.0699V27.2827C29.0699 27.9203 28.9164 28.3995 28.602 28.7227C28.2926 29.0436 27.828 29.2036 27.2092 29.2036C26.6528 29.2036 26.215 29.0322 25.8959 28.6911C25.5767 28.3516 25.415 27.8821 25.415 27.2827V24.4905C25.415 23.956 25.5921 23.515 25.943 23.1772ZM26.6967 25.111H27.7923V24.4831C27.7923 24.2224 27.7476 24.034 27.6623 23.926C27.5779 23.8098 27.4366 23.7546 27.2498 23.7546C27.0516 23.7546 26.9103 23.8098 26.8234 23.926C26.7365 24.034 26.6967 24.2232 26.6967 24.4831V25.111Z" fill="white"/>
</g>
<defs>
<clipPath id="clip0_4341_66719">
<rect width="41" height="41" fill="white"/>
</clipPath>
</defs>
</svg>
