<svg width="40" height="40" viewBox="0 0 40 40" fill="none" xmlns="http://www.w3.org/2000/svg">
<g clip-path="url(#clip0_4430_1290)">
<path d="M20.0008 0C8.95468 0 0 8.95468 0 20.0008C0 31.0486 8.95468 40.0016 20.0008 40.0016C31.0469 40.0016 40 31.0486 40 20.0008C40 8.95468 31.0461 0 20.0008 0ZM31.5854 15.0755C30.2493 22.6032 22.7859 28.975 20.5409 30.4313C18.2943 31.8843 16.2468 29.8457 15.5044 28.3057C14.654 26.5481 12.1053 17.0192 11.4384 16.2289C10.7708 15.4386 8.76868 17.0192 8.76868 17.0192L7.79808 15.744C7.79808 15.744 11.864 10.8894 14.9578 10.2802C18.2383 9.63938 18.2334 15.3192 19.0237 18.4738C19.7864 21.5262 20.2989 23.2692 20.9657 23.2692C21.6334 23.2692 22.9077 21.57 24.3031 18.9604C25.7009 16.3491 24.243 14.0424 21.5107 15.6831C22.604 9.1293 32.9215 7.55279 31.5854 15.0755Z" fill="white"/>
</g>
<defs>
<clipPath id="clip0_4430_1290">
<rect width="40" height="40" fill="white"/>
</clipPath>
</defs>
</svg>
