<svg width="59" height="18" viewBox="0 0 59 18" fill="none" xmlns="http://www.w3.org/2000/svg">
<path fill-rule="evenodd" clip-rule="evenodd" d="M35.8082 17.1382V15.4608V8.58691C35.8082 8.19223 35.7259 7.89623 35.5613 7.73178C35.3967 7.55089 35.1332 7.46866 34.771 7.46866C34.2442 7.46866 33.7009 7.61667 33.1576 7.91267C32.6472 8.15934 32.1533 8.52113 31.6759 8.96514V17.1546H29.1076V8.58691C29.1076 8.34024 29.0911 8.1429 29.0417 8.01134C28.9923 7.87978 28.9429 7.78111 28.8606 7.69889C28.7948 7.63311 28.696 7.58378 28.5807 7.53444C28.4655 7.48511 28.2844 7.45222 28.0539 7.45222C27.8399 7.45222 27.5929 7.48511 27.3295 7.56733C27.0661 7.63311 26.7697 7.76467 26.4405 7.91267C26.1606 8.04423 25.8972 8.19223 25.6502 8.35668C25.4033 8.52113 25.1892 8.68558 24.9752 8.86647V14.7372H25.6667V17.1382H22.4069V15.4444V7.69889H21.6825V5.29796H24.9588V5.98864C25.4362 5.69263 25.9301 5.46241 26.4569 5.28151C26.9838 5.10062 27.5435 5.0184 28.1198 5.0184C28.7289 5.0184 29.2722 5.13351 29.7826 5.34729C30.2929 5.56107 30.721 5.9393 31.0503 6.44909C31.4125 6.16953 31.8241 5.90641 32.285 5.67619C32.7131 5.46241 33.1411 5.3144 33.5527 5.18285C33.9808 5.06773 34.3759 5.00195 34.7875 5.00195C35.2979 5.00195 35.7753 5.08418 36.2034 5.21574C36.6314 5.36374 37.0101 5.59396 37.3558 5.92286C38.0144 6.5642 38.3436 7.40289 38.3436 8.4389V14.7372H38.9363V17.1382H35.8082ZM7.02994 16.3666V17.156V17.1724H10.1745V14.7715H9.61472V8.7034C9.61472 8.11139 9.51594 7.58516 9.30191 7.10826C9.10435 6.63136 8.77508 6.23669 8.33056 5.89135C7.90251 5.59534 7.42507 5.38156 6.86531 5.23356C6.32201 5.08555 5.69639 5.01978 5.02139 5.01978C4.70858 5.01978 4.34638 5.06911 3.93479 5.16778C3.5232 5.26645 3.12808 5.38156 2.76588 5.51312C2.45815 5.60667 2.10693 5.74366 1.71221 5.89762L1.71221 5.89762C1.62123 5.9331 1.52793 5.96949 1.43233 6.00646L2.22258 7.97983C2.33808 7.93368 2.46979 7.88753 2.6177 7.83571L2.61784 7.83566C2.68072 7.81363 2.74653 7.79057 2.81527 7.76605C3.04576 7.68382 3.27625 7.6016 3.53967 7.51938C3.78662 7.43715 4.05004 7.37137 4.29699 7.32204C4.54394 7.2727 4.75797 7.23981 4.95553 7.23981C5.33419 7.23981 5.66347 7.27271 5.92688 7.33848C6.1903 7.40426 6.40433 7.50293 6.58543 7.61804C6.7336 7.71671 6.83238 7.83183 6.9147 7.99627C6.99701 8.16072 7.02994 8.39095 7.02994 8.68695V10.0519C6.89823 9.98609 6.76652 9.93675 6.63482 9.90386C6.50311 9.87097 6.3714 9.83808 6.25615 9.8052C5.69639 9.65719 5.13663 9.59141 4.62626 9.59141C3.95125 9.59141 3.35857 9.67364 2.79881 9.83808C2.25551 10.0025 1.7616 10.2821 1.33355 10.6603C0.444516 11.4003 0 12.3541 0 13.5053C0 14.5742 0.378662 15.4622 1.13599 16.1858C1.89331 16.9422 2.83173 17.3204 3.96772 17.3204C4.51102 17.3204 5.03785 17.2382 5.56468 17.0573C6.07505 16.8764 6.56896 16.6462 7.02994 16.3666ZM6.12445 12.0746C6.42079 12.1732 6.71713 12.3048 7.02994 12.4692V13.7026C6.68421 14.0644 6.27262 14.3604 5.79517 14.5906C5.23541 14.8702 4.70858 15.0182 4.23114 15.0182C3.93479 15.0182 3.7043 14.9688 3.50674 14.9031C3.30918 14.8208 3.14454 14.7222 3.01283 14.5906C2.73295 14.3111 2.58478 13.9657 2.58478 13.6039C2.58478 13.1106 2.78234 12.7159 3.14454 12.387C3.30918 12.239 3.5232 12.1075 3.80308 12.0088C4.0665 11.9101 4.41223 11.8608 4.82382 11.8608C5.2848 11.8608 5.72932 11.9266 6.12445 12.0746ZM19.3449 16.5136C19.8223 16.1847 20.2339 15.79 20.5961 15.2967C20.9583 14.8198 21.304 14.1291 21.6662 13.2246L19.4601 12.2708C19.1802 12.9286 18.9333 13.4055 18.7193 13.7015C18.5052 13.9975 18.2747 14.2442 18.0442 14.4415C17.7973 14.6224 17.5339 14.754 17.254 14.8527C16.9741 14.9513 16.6284 15.0007 16.2497 15.0007C15.2454 15.0007 14.4552 14.6718 13.8625 14.014C13.5662 13.6686 13.3357 13.274 13.171 12.83C13.0064 12.386 12.9241 11.8597 12.9241 11.2348C12.9241 10.0837 13.2204 9.14634 13.8296 8.45566C14.4058 7.79787 15.1631 7.46898 16.0851 7.46898C16.7766 7.46898 17.3857 7.68276 17.9125 8.11032C18.143 8.27477 18.3241 8.53789 18.4723 8.89967C18.6205 9.24501 18.7028 9.85347 18.7357 10.6921H21.0735V5.97251H19.0321C18.604 5.64361 18.1266 5.39694 17.6327 5.24894C17.1388 5.11738 16.6119 5.03516 16.0686 5.03516C14.4223 5.03516 13.0393 5.64361 11.9363 6.86052C10.8661 8.0281 10.3228 9.49168 10.3228 11.2513C10.3228 13.0437 10.8661 14.5238 11.9527 15.7078C13.0393 16.8754 14.4552 17.4674 16.2003 17.4674C17.3857 17.4674 18.4229 17.1385 19.3449 16.5136ZM41.6601 12.2212C41.8116 12.8988 42.1382 13.5125 42.6242 14.0465C43.3322 14.7701 44.2212 15.1319 45.3078 15.1319C45.5054 15.1319 45.7359 15.099 46.0157 15.0332C46.2956 14.9674 46.5755 14.8852 46.8718 14.7866C47.0118 14.7372 47.1517 14.6838 47.2917 14.6303C47.4316 14.5769 47.5715 14.5234 47.7115 14.4741C47.8739 14.4168 48.0141 14.3596 48.1386 14.3088C48.2287 14.272 48.3105 14.2386 48.3865 14.211L49.045 16.4475C48.971 16.4742 48.8985 16.5004 48.8274 16.526C48.3302 16.7057 47.907 16.8586 47.5468 16.9737C47.1353 17.1053 46.7072 17.2204 46.2627 17.3355C45.8182 17.4506 45.4395 17.4999 45.1267 17.4999C43.3651 17.4999 41.9163 16.9079 40.7474 15.7075C39.595 14.507 39.0187 13.027 39.0187 11.2674C39.0187 9.4749 39.5785 7.97843 40.7145 6.81086C41.8669 5.62684 43.3157 5.05127 45.0444 5.05127C46.7731 5.05127 48.1725 5.62684 49.2426 6.79441C49.7859 7.40287 50.1975 8.12644 50.4938 8.96512C50.7737 9.82024 50.9548 10.9056 51.0371 12.2212H41.6601ZM44.9785 7.40287C45.9499 7.40287 46.7072 7.68243 47.2834 8.25799C47.7115 8.68556 48.0078 9.19534 48.2054 9.8038H41.7846C41.9492 9.29401 42.1962 8.85 42.5419 8.47178C43.184 7.76465 43.9907 7.40287 44.9785 7.40287Z" fill="#005587"/>
<path d="M58.0678 4.79652V4.16717L57.1832 3.8525C57.159 3.71936 57.1226 3.59834 57.0742 3.47731L57.6921 2.76324L57.3771 2.21861L56.4441 2.40015C56.3593 2.30333 56.2624 2.20651 56.1654 2.12179L56.3472 1.18986L55.8019 0.875189L55.0749 1.49244C54.9538 1.45613 54.8205 1.41982 54.6993 1.39561L54.3843 0.5H53.7542L53.4392 1.39561C53.3059 1.41982 53.1847 1.45613 53.0635 1.49244L52.3365 0.875189L51.7913 1.18986L51.973 2.12179C51.8761 2.20651 51.7792 2.30333 51.6944 2.40015L50.7614 2.21861L50.4463 2.76324L51.0643 3.47731C51.0279 3.59834 50.9916 3.73147 50.9552 3.8525L50.0586 4.16717V4.79652L50.9431 5.1112C50.9673 5.24433 51.0037 5.37746 51.04 5.49849L50.4221 6.21256L50.7614 6.75719L51.6822 6.58775C51.7671 6.69667 51.864 6.78139 51.973 6.87821L51.8034 7.79803L52.3487 8.11271L53.0514 7.50756C53.1847 7.55598 53.318 7.58018 53.4513 7.61649L53.7542 8.5H54.3843L54.6872 7.61649C54.8205 7.59228 54.9538 7.55598 55.087 7.50756L55.7898 8.11271L56.3351 7.79803L56.1654 6.87821C56.2745 6.79349 56.3593 6.69667 56.4562 6.58775L57.3771 6.75719L57.6921 6.21256L57.0742 5.49849C57.1226 5.37746 57.1469 5.24433 57.1832 5.1112L58.0678 4.79652ZM54.0692 6.07943C53.1968 6.07943 52.4819 5.36536 52.4819 4.48185C52.4819 3.59834 53.1968 2.88427 54.0692 2.88427C54.9538 2.88427 55.6565 3.59834 55.6565 4.48185C55.6565 5.36536 54.9538 6.07943 54.0692 6.07943Z" fill="#5F676F"/>
</svg>
