<svg width="25" height="25" viewBox="0 0 25 25" fill="none" xmlns="http://www.w3.org/2000/svg">
<path fill-rule="evenodd" clip-rule="evenodd" d="M0 12.5C0 5.59645 5.59645 0 12.5 0C19.402 0 24.999 5.59695 24.999 12.5C24.999 19.4046 19.4025 25 12.5 25C5.59645 25 0 19.4046 0 12.5ZM18.431 19.5777C19 19.5777 19.4619 19.1279 19.4619 18.5716H19.4614V6.5467C19.4614 5.99188 18.9995 5.54061 18.4305 5.54061H6.54365C5.9736 5.54061 5.51269 5.99137 5.51269 6.5467V18.5716C5.51269 19.1274 5.9736 19.5777 6.54365 19.5777H18.431ZM13.0128 11.8514C13.2931 11.4189 13.7941 10.8052 14.9113 10.8052C16.2971 10.8052 17.3372 11.7103 17.3377 13.6575V17.2905H15.2311V13.8996C15.2311 13.0478 14.9266 12.4661 14.1631 12.4661C13.5819 12.4661 13.2352 12.86 13.0824 13.2377C13.0266 13.3737 13.0128 13.561 13.0128 13.7514V17.291H10.9062C10.9062 17.291 10.9342 11.5478 10.9062 10.9539H13.0128V11.8514ZM13.0128 11.8514C13.0093 11.8585 13.0042 11.8661 12.9991 11.8722H13.0128V11.8514ZM8.7002 7.89697C7.97989 7.89697 7.50781 8.37108 7.50781 8.99291C7.50781 9.60053 7.96467 10.0883 8.67228 10.0883H8.68599C9.4205 10.0883 9.87786 9.60053 9.87786 8.99291C9.86416 8.37108 9.42101 7.89697 8.7002 7.89697ZM7.64062 10.9541H9.74773V17.2912H7.64062V10.9541Z" fill="black"/>
</svg>
