<svg width="61" height="60" viewBox="0 0 61 60" fill="none" xmlns="http://www.w3.org/2000/svg">
<circle cx="30" cy="30" r="25" fill="white"/>
<path fill-rule="evenodd" clip-rule="evenodd" d="M0 29.9987C0 13.43 13.4325 0 30.0011 0C46.5686 0 60.001 13.43 60.001 29.9987C60.001 46.5673 46.5686 59.9998 30.0011 59.9998C13.4325 59.9998 0 46.5673 0 29.9987ZM30.6521 47.3634H30.6595C40.5843 47.3634 48.6633 39.2846 48.6676 29.3557C48.6694 24.5438 46.798 20.0194 43.398 16.6157C39.9982 13.2118 35.4766 11.3365 30.6594 11.3345C20.7336 11.3345 12.6551 19.4125 12.6512 29.3413C12.6498 32.5152 13.479 35.6131 15.0549 38.3441L12.5001 47.6757L22.0465 45.1715C24.6766 46.6061 27.6382 47.3623 30.6521 47.3634ZM15.6908 29.3424C15.6939 21.09 22.4085 14.3761 30.6645 14.3761C34.6623 14.3773 38.4205 15.9364 41.2464 18.7654C44.0721 21.5945 45.6276 25.3551 45.626 29.3544C45.6227 37.6075 38.9084 44.3221 30.6586 44.3221H30.6525C27.9668 44.321 25.3326 43.5993 23.0344 42.2357L22.488 41.9114L16.8231 43.3973L18.3351 37.8742L17.9791 37.3079C16.481 34.9249 15.6896 32.1707 15.6908 29.3424ZM36.4313 37.9171C37.2958 37.788 39.0936 36.8287 39.4685 35.7777C39.8435 34.7264 39.8435 33.8255 39.731 33.638C39.6405 33.4868 39.4284 33.3843 39.1143 33.2325C39.0383 33.1958 38.9563 33.1562 38.8687 33.1123C38.4188 32.8871 36.2064 31.7988 35.794 31.6485C35.3816 31.4984 35.0817 31.4233 34.7817 31.8736C34.4818 32.324 33.6194 33.3377 33.3569 33.638C33.0945 33.9381 32.8319 33.976 32.382 33.7506C32.3084 33.7137 32.2081 33.6702 32.0843 33.6165C31.4508 33.3417 30.2012 32.7995 28.7636 31.5173C27.4259 30.3241 26.5229 28.8507 26.2603 28.4001C25.9979 27.9498 26.2324 27.7062 26.4577 27.4818C26.5929 27.3471 26.7483 27.1579 26.9036 26.9687C26.9808 26.8748 27.058 26.7808 27.1326 26.6936C27.3238 26.4704 27.4066 26.3013 27.5192 26.0715C27.5391 26.0307 27.56 25.9881 27.5825 25.943C27.7325 25.6427 27.6576 25.3799 27.545 25.1547C27.4694 25.0034 27.0386 23.9546 26.6503 23.0091C26.4605 22.5469 26.2808 22.1095 26.1577 21.8136C25.8352 21.0392 25.5083 21.041 25.2461 21.0425C25.2113 21.0426 25.1776 21.0428 25.1452 21.0412C24.8831 21.0281 24.5828 21.0253 24.2828 21.0253C23.9829 21.0253 23.4953 21.138 23.083 21.5883C23.0566 21.6173 23.027 21.6488 22.9948 21.6831C22.5262 22.1833 21.5081 23.2697 21.5081 25.3421C21.5081 27.5449 23.103 29.6733 23.3417 29.9917L23.3455 29.9968C23.3602 30.0164 23.3865 30.0542 23.4242 30.1082C23.9625 30.8803 26.8134 34.9694 31.0321 36.791C32.1057 37.2546 32.9438 37.5315 33.5973 37.7389C34.6751 38.0813 35.656 38.0331 36.4313 37.9171Z" fill="url(#paint0_linear_759_33980)"/>
<defs>
<linearGradient id="paint0_linear_759_33980" x1="29.9945" y1="59.9964" x2="29.9945" y2="-0.0118677" gradientUnits="userSpaceOnUse">
<stop stop-color="#20B038"/>
<stop offset="1" stop-color="#60D66A"/>
</linearGradient>
</defs>
</svg>
