<svg width="46" height="42" viewBox="0 0 46 42" fill="none" xmlns="http://www.w3.org/2000/svg">
<path d="M43 21L45.311 15.7092L39.5735 16.3532L43 21ZM3 21L0.688994 26.2908L6.42647 25.6468L3 21ZM23 1.5C32.2697 1.5 40.0298 7.96852 42.0105 16.6385L42.9854 16.4158C40.9031 7.30106 32.7464 0.499999 23 0.499999L23 1.5ZM23 40.5C13.7303 40.5 5.97021 34.0315 3.98951 25.3615L3.01462 25.5842C5.09693 34.6989 13.2536 41.5 23 41.5L23 40.5ZM3.60575 18.9565C4.62689 9.14764 12.9207 1.5 23 1.5L23 0.499999C12.4031 0.5 3.68475 8.53998 2.61112 18.853L3.60575 18.9565ZM42.3943 23.0435C41.3731 32.8524 33.0793 40.5 23 40.5L23 41.5C33.5969 41.5 42.3152 33.46 43.3889 23.147L42.3943 23.0435Z" fill="black"/>
</svg>
