<svg xmlns="http://www.w3.org/2000/svg" viewBox="0 0 200 122" width="200" height="122" preserveAspectRatio="xMidYMid meet" style="width: 100%; height: 100%; transform: translate3d(0px, 0px, 0px);"><defs><clipPath id="__lottie_element_32"><rect width="200" height="122" x="0" y="0"></rect></clipPath></defs><g clip-path="url(#__lottie_element_32)"><g transform="matrix(0.9700000286102295,0,0,0.9700000286102295,70,61)" opacity="1" style="display: block;"><g opacity="1" transform="matrix(3,0,0,3,0,0)"><path stroke-linecap="butt" stroke-linejoin="miter" fill-opacity="0" stroke-miterlimit="4" stroke="rgb(0,0,0)" stroke-opacity="1" stroke-width="1" d=" M0,-20 C11.038000106811523,-20 20,-11.038000106811523 20,0 C20,11.038000106811523 11.038000106811523,20 0,20 C-11.038000106811523,20 -20,11.038000106811523 -20,0 C-20,-7.943999767303467 -15.357999801635742,-14.812999725341797 -8.640999794006348,-18.038999557495117"></path></g></g><g transform="matrix(0,0.9700000286102295,-0.9700000286102295,0,130,61)" opacity="1" style="display: block;"><g opacity="1" transform="matrix(3,0,0,3,0,0)"><path stroke-linecap="butt" stroke-linejoin="miter" fill-opacity="0" stroke-miterlimit="4" stroke="rgb(0,0,0)" stroke-opacity="1" stroke-width="1" d=" M0,-20 C11.038000106811523,-20 20,-11.038000106811523 20,0 C20,11.038000106811523 11.038000106811523,20 0,20 C-11.038000106811523,20 -20,11.038000106811523 -20,0 C-20,-7.943999767303467 -15.357999801635742,-14.812999725341797 -8.640999794006348,-18.038999557495117"></path></g></g></g></svg>