<svg xmlns="http://www.w3.org/2000/svg" viewBox="0 0 200 122" width="200" height="122" preserveAspectRatio="xMidYMid meet" style="width: 100%; height: 100%; transform: translate3d(0px, 0px, 0px);"><defs><clipPath id="__lottie_element_24"><rect width="200" height="122" x="0" y="0"></rect></clipPath></defs><g clip-path="url(#__lottie_element_24)"><g transform="matrix(1,0,0,1,100,46.72600173950195)" opacity="1" style="display: block;"><g opacity="1" transform="matrix(2.094196319580078,2.148101806640625,-2.148101806640625,2.094196319580078,0,0)"><path stroke-linecap="butt" stroke-linejoin="miter" fill-opacity="0" stroke-miterlimit="4" stroke="rgb(0,0,0)" stroke-opacity="1" stroke-width="1" d=" M13.965999603271484,-13.965999603271484 C13.965999603271484,-13.965999603271484 -10.673999786376953,-10.673999786376953 -10.673999786376953,-10.673999786376953 C-10.673999786376953,-10.673999786376953 -13.965999603271484,13.965999603271484 -13.965999603271484,13.965999603271484 C-13.965999603271484,13.965999603271484 10.673999786376953,10.673999786376953 10.673999786376953,10.673999786376953 C10.673999786376953,10.673999786376953 12.057000160217285,0.32499998807907104 13.029999732971191,-6.959000110626221"></path></g></g><g transform="matrix(1,0,0,1,100,76.32099914550781)" opacity="1" style="display: block;"><g opacity="1" transform="matrix(2.094196319580078,2.148101806640625,-2.148101806640625,2.094196319580078,0,0)"><path stroke-linecap="butt" stroke-linejoin="miter" fill-opacity="0" stroke-miterlimit="4" stroke="rgb(0,0,0)" stroke-opacity="1" stroke-width="1" d=" M13.378000259399414,-12.916999816894531 C12.909000396728516,-9.406000137329102 10.279000282287598,10.279000282287598 10.279000282287598,10.279000282287598 C10.279000282287598,10.279000282287598 -13.449000358581543,13.449000358581543 -13.449000358581543,13.449000358581543 C-13.449000358581543,13.449000358581543 -12.45300006866455,5.7270002365112305 -12.45300006866455,5.7270002365112305"></path></g><g opacity="1" transform="matrix(1,0,0,1,0,0)"><path fill="rgb(24,33,84)" fill-opacity="1" d="M0 0"></path><path stroke-linecap="butt" stroke-linejoin="miter" fill-opacity="0" stroke-miterlimit="4" stroke="rgb(0,0,0)" stroke-opacity="1" stroke-width="1" d="M0 0"></path></g></g></g></svg>