<svg xmlns="http://www.w3.org/2000/svg" viewBox="0 0 200 122" width="200" height="122" preserveAspectRatio="xMidYMid meet" style="width: 100%; height: 100%; transform: translate3d(0px, 0px, 0px);"><defs><clipPath id="__lottie_element_2"><rect width="200" height="122" x="0" y="0"></rect></clipPath></defs><g clip-path="url(#__lottie_element_2)"><g transform="matrix(0.9700000286102295,0,0,0.9700000286102295,100,61.25)" opacity="1" style="display: block;"><g opacity="1" transform="matrix(3,0,0,3,0,0)"><path stroke-linecap="butt" stroke-linejoin="miter" fill-opacity="0" stroke-miterlimit="4" stroke="rgb(0,0,0)" stroke-opacity="1" stroke-width="1" d=" M0.014999999664723873,-20 C-4.894999980926514,-20.003999710083008 -9.635000228881836,-18.201000213623047 -13.302000045776367,-14.9350004196167 C-16.9689998626709,-11.668999671936035 -19.305999755859375,-7.168000221252441 -19.868000030517578,-2.2899999618530273 C-20.43000030517578,2.5880000591278076 -19.179000854492188,7.501999855041504 -16.35099983215332,11.517000198364258 C-13.52299976348877,15.531999588012695 -9.317999839782715,18.364999771118164 -4.535999774932861,19.479000091552734 C0.2460000067949295,20.593000411987305 5.271999835968018,19.906999588012695 9.581999778747559,17.55500030517578 C13.892000198364258,15.20300006866455 17.18600082397461,11.347000122070312 18.836000442504883,6.7220001220703125 C20.486000061035156,2.0969998836517334 20.378000259399414,-2.9719998836517334 18.5310001373291,-7.521999835968018 C17.834999084472656,-9.237000465393066 16.90999984741211,-10.833000183105469 15.791999816894531,-12.272000312805176"></path></g></g><g transform="matrix(1.0299999713897705,0,0,1.0299999713897705,100,61.25)" opacity="1" style="display: block;"><g opacity="1" transform="matrix(0,-3,3,0,0,0)"><path stroke-linecap="butt" stroke-linejoin="miter" fill-opacity="0" stroke-miterlimit="4" stroke="rgb(0,0,0)" stroke-opacity="1" stroke-width="1" d=" M0,-5 C2.759500026702881,-5 5,-2.759500026702881 5,0 C5,2.759500026702881 2.759500026702881,5 0,5 C-2.759500026702881,5 -5,2.759500026702881 -5,0 C-5,-1.9859999418258667 -3.8389999866485596,-3.703000068664551 -2.1600000858306885,-4.510000228881836"></path></g></g><g transform="matrix(0.9700000286102295,0,0,0.9700000286102295,100,61.25)" opacity="1" style="display: block;"><g opacity="1" transform="matrix(3,0,0,3,0,0)"><path stroke-linecap="butt" stroke-linejoin="miter" fill-opacity="0" stroke-miterlimit="4" stroke="rgb(0,0,0)" stroke-opacity="1" stroke-width="1" d=" M0,15 C2.9670000076293945,15 5.867000102996826,14.119999885559082 8.333999633789062,12.472000122070312 C10.800999641418457,10.824000358581543 12.722999572753906,8.480999946594238 13.857999801635742,5.739999771118164 C14.993000030517578,2.999000072479248 15.291000366210938,-0.01600000075995922 14.711999893188477,-2.9260001182556152 C14.133000373840332,-5.835999965667725 12.704999923706055,-8.508999824523926 10.607000350952148,-10.607000350952148 C8.508999824523926,-12.704999923706055 5.835999965667725,-14.133000373840332 2.9260001182556152,-14.711999893188477 C0.01600000075995922,-15.291000366210938 -2.999000072479248,-14.993000030517578 -5.739999771118164,-13.857999801635742 C-8.480999946594238,-12.722999572753906 -10.824000358581543,-10.800999641418457 -12.472000122070312,-8.333999633789062 C-13.182000160217285,-7.270999908447266 -13.75,-6.126999855041504 -14.166000366210938,-4.932000160217285"></path></g></g><g transform="matrix(0.9700000286102295,0,0,-1.0299999713897705,100,61.25)" opacity="1" style="display: block;"><g opacity="1" transform="matrix(3,0,0,3,0,0)"><path stroke-linecap="butt" stroke-linejoin="miter" fill-opacity="0" stroke-miterlimit="4" stroke="rgb(0,0,0)" stroke-opacity="1" stroke-width="1" d=" M0,10 C1.9780000448226929,10 3.9119999408721924,9.413999557495117 5.556000232696533,8.3149995803833 C7.199999809265137,7.216000080108643 8.482000350952148,5.6539998054504395 9.23900032043457,3.8269999027252197 C9.996000289916992,2 10.194000244140625,-0.010999999940395355 9.807999610900879,-1.9509999752044678 C9.42199993133545,-3.8910000324249268 8.470000267028809,-5.671999931335449 7.071000099182129,-7.071000099182129 C5.671999931335449,-8.470000267028809 3.8910000324249268,-9.42199993133545 1.9509999752044678,-9.807999610900879 C0.010999999940395355,-10.194000244140625 -2,-9.996000289916992 -3.8269999027252197,-9.23900032043457 C-5.6539998054504395,-8.482000350952148 -7.216000080108643,-7.199999809265137 -8.3149995803833,-5.556000232696533 C-9.413999557495117,-3.9119999408721924 -10,-1.9780000448226929 -10,0"></path></g></g></g></svg>