<svg width="41" height="41" viewBox="0 0 41 41" fill="none" xmlns="http://www.w3.org/2000/svg">
<g clip-path="url(#clip0_4341_66713)">
<path fill-rule="evenodd" clip-rule="evenodd" d="M0.72168 20.1558C0.72168 9.10971 9.67636 0.155029 20.7225 0.155029C31.7662 0.155029 40.7217 9.11052 40.7217 20.1558C40.7217 31.2036 31.767 40.1567 20.7225 40.1567C9.67636 40.1567 0.72168 31.2036 0.72168 20.1558ZM30.2124 31.4806C31.1229 31.4806 31.862 30.7609 31.862 29.8708H31.8612V10.6302C31.8612 9.74242 31.1221 9.02036 30.2116 9.02036H11.192C10.2798 9.02036 9.54234 9.74161 9.54234 10.6302V29.8708C9.54234 30.7601 10.2798 31.4806 11.192 31.4806H30.2124ZM21.5447 19.1177C21.993 18.4257 22.7947 17.4438 24.5824 17.4438C26.7997 17.4438 28.464 18.8919 28.4648 22.0076V27.8206H25.0941V22.395C25.0941 21.0321 24.6068 20.1013 23.3852 20.1013C22.4552 20.1013 21.9005 20.7316 21.656 21.3359C21.5666 21.5536 21.5447 21.8533 21.5447 22.1579V27.8214H18.174C18.174 27.8214 18.2187 18.632 18.174 17.6817H21.5447V19.1177ZM21.5447 19.1177C21.539 19.1291 21.5309 19.1413 21.5228 19.151H21.5447V19.1177ZM14.6447 12.7906C13.4921 12.7906 12.7368 13.5492 12.7368 14.5441C12.7368 15.5164 13.4678 16.2969 14.6 16.2969H14.6219C15.7972 16.2969 16.529 15.5164 16.529 14.5441C16.5071 13.5492 15.798 12.7906 14.6447 12.7906ZM12.9374 17.6817H16.3089V27.8214H12.9374V17.6817Z" fill="white"/>
</g>
<defs>
<clipPath id="clip0_4341_66713">
<rect width="41" height="41" fill="white"/>
</clipPath>
</defs>
</svg>
