<svg width="48" height="42" viewBox="0 0 48 42" fill="none" xmlns="http://www.w3.org/2000/svg">
<path d="M1 21C1 32.0457 9.9543 41 21 41C32.0457 41 41 32.0457 41 21" stroke="black"/>
<path d="M21 1C9.9543 1 1 9.95431 1 21" stroke="black"/>
<path d="M38.9647 29.7513C43.8206 19.8302 39.7144 7.85114 29.7933 2.99527" stroke="black"/>
<path d="M21 35.9961C29.2843 35.9961 36 29.2804 36 20.9961" stroke="black"/>
<path d="M6 20.9961C6 12.7118 12.7157 5.9961 21 5.9961C29.2843 5.9961 36 12.7118 36 20.9961" stroke="black"/>
<path d="M11.3049 21.0747C11.1832 26.5962 15.5605 31.171 21.082 31.2927" stroke="black"/>
<path d="M21.5229 11.2976C27.0444 11.4193 31.4218 15.9941 31.3001 21.5156C31.1783 27.0371 26.6035 31.4145 21.082 31.2927" stroke="black"/>
<circle cx="21" cy="21" r="4.5" transform="rotate(90 21 21)" stroke="black"/>
</svg>
