<svg width="16" height="15" viewBox="0 0 16 15" fill="none" xmlns="http://www.w3.org/2000/svg">
<path fill-rule="evenodd" clip-rule="evenodd" d="M15.713 13.0336C15.385 13.9621 13.8122 14.8096 13.0559 14.9237C12.3776 15.0262 11.5194 15.0688 10.5764 14.7662C10.0047 14.583 9.2715 14.3384 8.33225 13.9288C4.64143 12.3194 2.14724 8.70676 1.67629 8.02462C1.64335 7.97691 1.62031 7.94354 1.60745 7.92619L1.60412 7.9217C1.39533 7.64034 0 5.75997 0 3.8138C0 1.9829 0.890648 1.02305 1.30069 0.581148C1.32882 0.550829 1.35469 0.522949 1.37785 0.497392C1.73855 0.0995654 2.16511 0 2.42753 0C2.68994 0 2.95268 0.00247544 3.18195 0.0139933C3.2103 0.0154458 3.23979 0.0152824 3.27028 0.0151122C3.49967 0.0138365 3.78565 0.0122458 4.0678 0.696412C4.17543 0.957675 4.33254 1.34395 4.49852 1.75208C4.83825 2.58738 5.21536 3.51458 5.28151 3.64826C5.38 3.84717 5.44555 4.07934 5.31434 4.34467C5.29459 4.38456 5.27633 4.42221 5.25889 4.45818C5.16043 4.66123 5.08795 4.81068 4.92071 5.00782C4.8554 5.08489 4.78789 5.1679 4.72037 5.25093C4.58446 5.41803 4.44849 5.58522 4.33022 5.70423C4.13314 5.9025 3.92796 6.11767 4.15755 6.51549C4.38724 6.91365 5.17727 8.2153 6.3476 9.2695C7.60531 10.4024 8.69856 10.8813 9.25282 11.1242C9.36107 11.1716 9.44892 11.2101 9.51324 11.2426C9.90687 11.4417 10.1366 11.4083 10.3662 11.1431C10.5958 10.8778 11.3503 9.98228 11.6127 9.58434C11.8751 9.18651 12.1375 9.25282 12.4983 9.38543C12.8591 9.51825 14.7946 10.4798 15.1883 10.6787C15.265 10.7175 15.3367 10.7525 15.4031 10.7849C15.6779 10.919 15.8635 11.0096 15.9427 11.1431C16.0411 11.3088 16.0411 12.1048 15.713 13.0336Z" fill="black"/>
</svg>
