<svg width="17" height="17" viewBox="0 0 17 17" fill="none" xmlns="http://www.w3.org/2000/svg">
<path fill-rule="evenodd" clip-rule="evenodd" d="M1.65859 7.35725C1.65859 4.20923 4.21057 1.65725 7.35859 1.65725C10.5066 1.65725 13.0586 4.20923 13.0586 7.35725C13.0586 10.5053 10.5066 13.0573 7.35859 13.0573C4.21057 13.0573 1.65859 10.5053 1.65859 7.35725ZM7.35859 0.057251C3.32692 0.057251 0.0585938 3.32557 0.0585938 7.35725C0.0585938 11.3889 3.32692 14.6573 7.35859 14.6573C9.08623 14.6573 10.6737 14.0571 11.9239 13.0539L15.8296 16.9596L16.961 15.8282L13.0553 11.9225C14.0584 10.6724 14.6586 9.08489 14.6586 7.35725C14.6586 3.32557 11.3903 0.057251 7.35859 0.057251Z" fill="black"/>
</svg>
