<svg width="25" height="25" viewBox="0 0 25 25" fill="none" xmlns="http://www.w3.org/2000/svg">
<path d="M12.5005 0C5.59667 0 0 5.59769 0 12.5005C0 19.4043 5.59667 25 12.5005 25C19.4043 25 25 19.4043 25 12.5005C25 5.59769 19.4038 0 12.5005 0ZM18.7972 9.9801C18.8038 10.1151 18.8064 10.2507 18.8064 10.3877C18.8064 14.5508 15.6377 19.3505 9.84355 19.3505C8.0648 19.3505 6.40838 18.8292 5.01442 17.9358C5.26113 17.9647 5.51139 17.9794 5.76572 17.9794C7.24192 17.9794 8.60035 17.4758 9.67806 16.6311C8.29983 16.6052 7.13684 15.694 6.73581 14.4427C6.92769 14.4803 7.12516 14.4991 7.32822 14.4991C7.61554 14.4991 7.89372 14.4615 8.1582 14.3889C6.71652 14.0996 5.63069 12.8254 5.63069 11.3005C5.63069 11.2868 5.63069 11.2736 5.63119 11.2598C6.05558 11.4959 6.54138 11.6375 7.05816 11.6543C6.21244 11.0883 5.65658 10.1253 5.65658 9.03184C5.65658 8.45466 5.81191 7.91301 6.08299 7.44802C7.63686 9.35368 9.95827 10.608 12.5767 10.739C12.5228 10.5091 12.4949 10.2679 12.4949 10.0212C12.4949 8.28206 13.9051 6.87135 15.6453 6.87135C16.5514 6.87135 17.3697 7.2541 17.9444 7.8658C18.6622 7.72519 19.3363 7.46223 19.945 7.1013C19.7089 7.83738 19.2099 8.45466 18.5591 8.84402C19.1972 8.76787 19.8044 8.59832 20.3688 8.34806C19.9475 8.98108 19.413 9.53592 18.7972 9.9801Z" fill="black"/>
</svg>
