<svg width="20" height="16" viewBox="0 0 20 16" fill="none" xmlns="http://www.w3.org/2000/svg">
<path d="M6.50187 7.69988C7.30188 7.89988 7.92188 8.31988 8.36188 8.95988C8.84188 9.55989 9.08188 10.3399 9.08188 11.2999C9.08188 12.4999 8.70188 13.4799 7.94188 14.2399C7.22188 14.9999 6.26188 15.3799 5.06188 15.3799C3.86188 15.3799 2.86188 14.9999 2.06188 14.2399C1.30188 13.4799 0.921875 12.5199 0.921875 11.3599C0.921875 10.1999 1.28187 9.03988 2.00187 7.87988L6.26188 0.379883H9.20187L6.50187 7.69988ZM11.3619 11.3599C11.3619 10.1999 11.7219 9.03988 12.4419 7.87988L16.7019 0.379883H19.6419L16.9419 7.69988C17.7419 7.89988 18.3619 8.31988 18.8019 8.95988C19.2819 9.55989 19.5219 10.3399 19.5219 11.2999C19.5219 12.4999 19.1419 13.4799 18.3819 14.2399C17.6619 14.9999 16.7019 15.3799 15.5019 15.3799C14.3019 15.3799 13.3019 14.9999 12.5019 14.2399C11.7419 13.4799 11.3619 12.5199 11.3619 11.3599Z" fill="black"/>
</svg>
