<svg xmlns="http://www.w3.org/2000/svg" viewBox="0 0 200 122" width="200" height="122" preserveAspectRatio="xMidYMid meet" style="width: 100%; height: 100%; transform: translate3d(0px, 0px, 0px);"><defs><clipPath id="__lottie_element_16"><rect width="200" height="122" x="0" y="0"></rect></clipPath></defs><g clip-path="url(#__lottie_element_16)"><g transform="matrix(0.03489949554204941,0.9993908405303955,-0.9993908405303955,0.03489949554204941,51,62)" opacity="1" style="display: block;"><g opacity="1" transform="matrix(3,0,0,3,0,0)"><path stroke-linecap="butt" stroke-linejoin="miter" fill-opacity="0" stroke-miterlimit="4" stroke="rgb(0,0,0)" stroke-opacity="1" stroke-width="1" d=" M8.668000221252441,-8.295000076293945 C10.732000350952148,-6.138999938964844 12,-3.2170000076293945 12,0 C12,6.622799873352051 6.622799873352051,12 0,12 C-6.622799873352051,12 -12,6.622799873352051 -12,0 C-12,-6.622799873352051 -6.622799873352051,-12 0,-12"></path></g></g><g transform="matrix(0,0.9900000095367432,-0.9900000095367432,0,109.5,61)" opacity="1" style="display: block;"><g opacity="1" transform="matrix(3,0,0,3,0,0)"><path stroke-linecap="butt" stroke-linejoin="miter" fill-opacity="0" stroke-miterlimit="4" stroke="rgb(0,0,0)" stroke-opacity="1" stroke-width="1" d=" M20,-8.62399959564209 C20,3.200000047683716 20,20 20,20 C20,20 -20,20 -20,20 C-20,20 -20,-20 -20,-20 C-20,-20 20,-20 20,-20"></path></g></g></g></svg>